<svg xmlns="http://www.w3.org/2000/svg" fill="none" viewBox="0 0 24 19" height="19" width="24">
    <path fill="black"
        d="M12.9961 11.168C12.9961 10.1602 13.125 9.15234 13.3828 8.14453C13.6641 7.11328 14.0977 6.14062 14.6836 5.22656C15.293 4.28906 16.0664 3.43359 17.0039 2.66016C17.9414 1.86328 19.0781 1.19531 20.4141 0.65625C20.5312 0.609375 20.6367 0.574219 20.7305 0.550781C20.8242 0.527344 20.9297 0.515625 21.0469 0.515625C21.5859 0.515625 22.0312 0.714844 22.3828 1.11328C22.7344 1.51172 22.9102 1.94531 22.9102 2.41406C22.9102 2.76562 22.793 3.10547 22.5586 3.43359C22.3477 3.76172 22.0547 3.99609 21.6797 4.13672C20.625 4.53516 19.7812 5.02734 19.1484 5.61328C18.5156 6.19922 18 6.83203 17.6016 7.51172C17.7891 7.46484 17.9531 7.44141 18.0938 7.44141C18.2344 7.44141 18.3984 7.44141 18.5859 7.44141C19.3125 7.44141 20.0039 7.58203 20.6602 7.86328C21.3164 8.14453 21.8906 8.53125 22.3828 9.02344C22.875 9.51562 23.2617 10.0898 23.543 10.7461C23.8477 11.4023 24 12.1055 24 12.8555C24 13.6055 23.8477 14.3086 23.543 14.9648C23.2617 15.5977 22.875 16.1484 22.3828 16.6172C21.8906 17.0859 21.3164 17.4609 20.6602 17.7422C20.0039 18.0234 19.3125 18.1641 18.5859 18.1641C17.625 18.1641 16.793 17.9766 16.0898 17.6016C15.4102 17.2266 14.8359 16.7227 14.3672 16.0898C13.8984 15.4336 13.5469 14.6836 13.3125 13.8398C13.1016 12.9961 12.9961 12.1055 12.9961 11.168ZM0.0234375 11.168C0.0234375 10.1602 0.152344 9.15234 0.410156 8.14453C0.691406 7.11328 1.125 6.14062 1.71094 5.22656C2.32031 4.28906 3.09375 3.43359 4.03125 2.66016C4.96875 1.86328 6.10547 1.19531 7.44141 0.65625C7.55859 0.609375 7.66406 0.574219 7.75781 0.550781C7.85156 0.527344 7.95703 0.515625 8.07422 0.515625C8.61328 0.515625 9.05859 0.714844 9.41016 1.11328C9.78516 1.51172 9.97266 1.94531 9.97266 2.41406C9.97266 2.76562 9.85547 3.10547 9.62109 3.43359C9.38672 3.76172 9.09375 3.99609 8.74219 4.13672C7.6875 4.53516 6.83203 5.02734 6.17578 5.61328C5.54297 6.19922 5.02734 6.83203 4.62891 7.51172C4.81641 7.46484 4.98047 7.44141 5.12109 7.44141C5.28516 7.44141 5.46094 7.44141 5.64844 7.44141C6.375 7.44141 7.06641 7.58203 7.72266 7.86328C8.37891 8.14453 8.95312 8.53125 9.44531 9.02344C9.9375 9.51562 10.3242 10.0898 10.6055 10.7461C10.8867 11.4023 11.0273 12.1055 11.0273 12.8555C11.0273 13.6055 10.8867 14.3086 10.6055 14.9648C10.3242 15.5977 9.9375 16.1484 9.44531 16.6172C8.95312 17.0859 8.37891 17.4609 7.72266 17.7422C7.06641 18.0234 6.375 18.1641 5.64844 18.1641C4.6875 18.1641 3.85547 17.9766 3.15234 17.6016C2.44922 17.2266 1.86328 16.7227 1.39453 16.0898C0.925781 15.4336 0.574219 14.6836 0.339844 13.8398C0.128906 12.9961 0.0234375 12.1055 0.0234375 11.168Z">
    </path>
</svg>